{
  "accessors": [
    {
      "bufferView": 2,
      "componentType": 5126,
      "count": 514,
      "max": [
        0.065136000514030457,
        0.024834999814629555,
        0.059928998351097107
      ],
      "min": [
        -0.065093003213405609,
        -0.0063419998623430729,
        0.013050000183284283
      ],
      "type": "VEC3"
    },
    {
      "bufferView": 2,
      "byteOffset": 6168,
      "componentType": 5126,
      "count": 514,
      "max": [
        0.7422214150428772,
        -0.64089995622634888,
        0.38979718089103699
      ],
      "min": [
        -0.74692076444625854,
        -0.90685081481933594,
        -0.066301994025707245
      ],
      "type": "VEC3"
    },
    {
      "bufferView": 1,
      "componentType": 5126,
      "count": 514,
      "max": [
        0.36916801333427429,
        0.97701597213745117
      ],
      "min": [
        0.18016700446605682,
        0.85614997148513794
      ],
      "type": "VEC2"
    },
    {
      "bufferView": 0,
      "componentType": 5125,
      "count": 2688,
      "max": [
        513
      ],
      "min": [
        0
      ],
      "type": "SCALAR"
    },
    {
      "bufferView": 2,
      "byteOffset": 12336,
      "componentType": 5126,
      "count": 726,
      "max": [
        0.14011000096797943,
        0.25595200061798096,
        0.18010999262332916
      ],
      "min": [
        -0.1392810046672821,
        -0.044064998626708984,
        0.066086001694202423
      ],
      "type": "VEC3"
    },
    {
      "bufferView": 2,
      "byteOffset": 21048,
      "componentType": 5126,
      "count": 726,
      "max": [
        0.99976545572280884,
        0.99969989061355591,
        0.99998021125793457
      ],
      "min": [
        -0.99999964237213135,
        -0.99990320205688477,
        -0.9997602105140686
      ],
      "type": "VEC3"
    },
    {
      "bufferView": 1,
      "byteOffset": 4112,
      "componentType": 5126,
      "count": 726,
      "max": [
        0.65672099590301514,
        0.87789797782897949
      ],
      "min": [
        0.011195000261068344,
        0.0080939996987581253
      ],
      "type": "VEC2"
    },
    {
      "bufferView": 0,
      "byteOffset": 10752,
      "componentType": 5125,
      "count": 3780,
      "max": [
        725
      ],
      "min": [
        0
      ],
      "type": "SCALAR"
    },
    {
      "bufferView": 2,
      "byteOffset": 29760,
      "componentType": 5126,
      "count": 441,
      "max": [
        0.084415003657341003,
        0.20173600316047668,
        0.14179399609565735
      ],
      "min": [
        -0.084415003657341003,
        0.02359200082719326,
        -0.078620001673698425
      ],
      "type": "VEC3"
    },
    {
      "bufferView": 2,
      "byteOffset": 35052,
      "componentType": 5126,
      "count": 441,
      "max": [
        0.99425309896469116,
        0.99117952585220337,
        0.99989199638366699
      ],
      "min": [
        -0.99415081739425659,
        -0.99999690055847168,
        -0.98481416702270508
      ],
      "type": "VEC3"
    },
    {
      "bufferView": 1,
      "byteOffset": 9920,
      "componentType": 5126,
      "count": 441,
      "max": [
        0.86300498247146606,
        0.96401399374008179
      ],
      "min": [
        0.18322299420833588,
        0.12351399660110474
      ],
      "type": "VEC2"
    },
    {
      "bufferView": 0,
      "byteOffset": 25872,
      "componentType": 5125,
      "count": 2280,
      "max": [
        440
      ],
      "min": [
        0
      ],
      "type": "SCALAR"
    },
    {
      "bufferView": 2,
      "byteOffset": 40344,
      "componentType": 5126,
      "count": 4518,
      "max": [
        0.080985002219676971,
        0.18128900229930878,
        0.11249499768018723
      ],
      "min": [
        -0.080624997615814209,
        -0.12676399946212769,
        -0.075684003531932831
      ],
      "type": "VEC3"
    },
    {
      "bufferView": 2,
      "byteOffset": 94560,
      "componentType": 5126,
      "count": 4518,
      "max": [
        0.9999316930770874,
        0.99912601709365845,
        0.99683541059494019
      ],
      "min": [
        -0.99993109703063965,
        -0.99785292148590088,
        -0.99827754497528076
      ],
      "type": "VEC3"
    },
    {
      "bufferView": 1,
      "byteOffset": 13448,
      "componentType": 5126,
      "count": 4518,
      "max": [
        0.96956002712249756,
        0.99048399925231934
      ],
      "min": [
        0.011490999720990658,
        0.01422400027513504
      ],
      "type": "VEC2"
    },
    {
      "bufferView": 0,
      "byteOffset": 34992,
      "componentType": 5125,
      "count": 23988,
      "max": [
        4517
      ],
      "min": [
        0
      ],
      "type": "SCALAR"
    }
  ],
  "asset": {
    "extras": {
      "author": "Tombolaso (https://sketchfab.com/tombolaso)",
      "license": "CC-BY-4.0 (http://creativecommons.org/licenses/by/4.0/)",
      "source": "https://sketchfab.com/3d-models/plague-master-instagram-ar-face-filter-b0e6394b0d4f471385836143444a1a8a",
      "title": "Plague master - Instagram AR face filter"
    },
    "generator": "Sketchfab-7.82.0",
    "version": "2.0"
  },
  "bufferViews": [
    {
      "buffer": 0,
      "byteLength": 130944,
      "byteOffset": 0,
      "name": "floatBufferViews",
      "target": 34963
    },
    {
      "buffer": 0,
      "byteLength": 49592,
      "byteOffset": 130944,
      "byteStride": 8,
      "name": "floatBufferViews",
      "target": 34962
    },
    {
      "buffer": 0,
      "byteLength": 148776,
      "byteOffset": 180536,
      "byteStride": 12,
      "name": "floatBufferViews",
      "target": 34962
    }
  ],
  "buffers": [
    {
      "byteLength": 329312,
      "uri": "scene.bin"
    }
  ],
  "extensionsUsed": [
    "KHR_materials_unlit"
  ],
  "images": [
    {
      "uri": "textures/cappello_baseColor.png"
    }
  ],
  "materials": [
    {
      "alphaMode": "BLEND",
      "doubleSided": true,
      "extensions": {
        "KHR_materials_unlit": {}
      },
      "name": "Glass_mat",
      "pbrMetallicRoughness": {
        "baseColorFactor": [
          0.2482802702197365,
          0,
          0,
          0.43464176829268292
        ],
        "metallicFactor": 0,
        "roughnessFactor": 1
      }
    },
    {
      "doubleSided": true,
      "extensions": {
        "KHR_materials_unlit": {}
      },
      "name": "cappello",
      "pbrMetallicRoughness": {
        "baseColorFactor": [
          1,
          1,
          1,
          1
        ],
        "baseColorTexture": {
          "index": 0,
          "texCoord": 0
        },
        "metallicFactor": 0,
        "roughnessFactor": 1
      }
    },
    {
      "doubleSided": true,
      "extensions": {
        "KHR_materials_unlit": {}
      },
      "name": "face",
      "pbrMetallicRoughness": {
        "baseColorFactor": [
          0.090015850884717488,
          0.075155629726192302,
          0.054932707927586269,
          1
        ],
        "metallicFactor": 0,
        "roughnessFactor": 1
      }
    },
    {
      "doubleSided": true,
      "extensions": {
        "KHR_materials_unlit": {}
      },
      "name": "maschera",
      "pbrMetallicRoughness": {
        "baseColorFactor": [
          1,
          1,
          1,
          1
        ],
        "baseColorTexture": {
          "index": 0,
          "texCoord": 0
        },
        "metallicFactor": 0,
        "roughnessFactor": 1
      }
    }
  ],
  "meshes": [
    {
      "primitives": [
        {
          "attributes": {
            "NORMAL": 1,
            "POSITION": 0,
            "TEXCOORD_0": 2
          },
          "indices": 3,
          "material": 0,
          "mode": 4
        }
      ]
    },
    {
      "primitives": [
        {
          "attributes": {
            "NORMAL": 5,
            "POSITION": 4,
            "TEXCOORD_0": 6
          },
          "indices": 7,
          "material": 1,
          "mode": 4
        }
      ]
    },
    {
      "primitives": [
        {
          "attributes": {
            "NORMAL": 9,
            "POSITION": 8,
            "TEXCOORD_0": 10
          },
          "indices": 11,
          "material": 2,
          "mode": 4
        }
      ]
    },
    {
      "primitives": [
        {
          "attributes": {
            "NORMAL": 13,
            "POSITION": 12,
            "TEXCOORD_0": 14
          },
          "indices": 15,
          "material": 3,
          "mode": 4
        }
      ]
    }
  ],
  "nodes": [
    {
      "children": [
        1
      ],
      "name": "RootNode (gltf orientation matrix)",
      "rotation": [
        -0.70710678118654746,
        -0,
        -0,
        0.70710678118654757
      ]
    },
    {
      "children": [
        2
      ],
      "name": "RootNode (model correction matrix)"
    },
    {
      "children": [
        3,
        4,
        5,
        6
      ],
      "name": "PlagueMask_sketchfab.obj.cleaner.materialmerger.gles"
    },
    {
      "mesh": 0,
      "name": ""
    },
    {
      "mesh": 1,
      "name": ""
    },
    {
      "mesh": 2,
      "name": ""
    },
    {
      "mesh": 3,
      "name": ""
    }
  ],
  "samplers": [
    {
      "magFilter": 9729,
      "minFilter": 9987,
      "wrapS": 10497,
      "wrapT": 10497
    }
  ],
  "scene": 0,
  "scenes": [
    {
      "name": "OSG_Scene",
      "nodes": [
        0
      ]
    }
  ],
  "textures": [
    {
      "sampler": 0,
      "source": 0
    }
  ]
}

