{
  "accessors": [
    {
      "bufferView": 2,
      "componentType": 5126,
      "count": 213,
      "max": [
        0.46368199586868286,
        -0.0043007400818169117,
        0.6468619704246521
      ],
      "min": [
        0.21586699783802032,
        -0.28417098522186279,
        0.4950920045375824
      ],
      "type": "VEC3"
    },
    {
      "bufferView": 2,
      "byteOffset": 2556,
      "componentType": 5126,
      "count": 213,
      "max": [
        0.87865841388702393,
        0.99338233470916748,
        0.99982345104217529
      ],
      "min": [
        -0.86561113595962524,
        -0.99338233470916748,
        -0.51049196720123291
      ],
      "type": "VEC3"
    },
    {
      "bufferView": 3,
      "componentType": 5126,
      "count": 213,
      "max": [
        0.99991101026535034,
        0.99999034404754639,
        0.99504566192626953,
        1
      ],
      "min": [
        -0.77535223960876465,
        -0.98104137182235718,
        -0.99501103162765503,
        -1
      ],
      "type": "VEC4"
    },
    {
      "bufferView": 1,
      "componentType": 5126,
      "count": 213,
      "max": [
        0.9921879768371582,
        0.96707898378372192
      ],
      "min": [
        0.0078125,
        0.0078125
      ],
      "type": "VEC2"
    },
    {
      "bufferView": 0,
      "componentType": 5125,
      "count": 672,
      "max": [
        212
      ],
      "min": [
        0
      ],
      "type": "SCALAR"
    },
    {
      "bufferView": 2,
      "byteOffset": 5112,
      "componentType": 5126,
      "count": 576,
      "max": [
        0.93491798639297485,
        -0.052030999213457108,
        -0.055617298930883408
      ],
      "min": [
        -0.93491798639297485,
        -0.09171459823846817,
        -0.096178397536277771
      ],
      "type": "VEC3"
    },
    {
      "bufferView": 2,
      "byteOffset": 12024,
      "componentType": 5126,
      "count": 576,
      "max": [
        0.99874848127365112,
        0.94748097658157349,
        0.96249324083328247
      ],
      "min": [
        -0.99874848127365112,
        -0.94748097658157349,
        -0.96249425411224365
      ],
      "type": "VEC3"
    },
    {
      "bufferView": 3,
      "byteOffset": 3408,
      "componentType": 5126,
      "count": 576,
      "max": [
        0.9813685417175293,
        0.9999922513961792,
        0.9996107816696167,
        1
      ],
      "min": [
        -0.98137128353118896,
        -0.9999922513961792,
        -0.9996107816696167,
        -1
      ],
      "type": "VEC4"
    },
    {
      "bufferView": 1,
      "byteOffset": 1704,
      "componentType": 5126,
      "count": 576,
      "max": [
        0.98152798414230347,
        0.95720100402832031
      ],
      "min": [
        0.047697201371192932,
        0.0078125
      ],
      "type": "VEC2"
    },
    {
      "bufferView": 0,
      "byteOffset": 2688,
      "componentType": 5125,
      "count": 768,
      "max": [
        575
      ],
      "min": [
        0
      ],
      "type": "SCALAR"
    },
    {
      "bufferView": 2,
      "byteOffset": 18936,
      "componentType": 5126,
      "count": 220,
      "max": [
        0.93323701620101929,
        0.39258000254631042,
        -0.048955701291561127
      ],
      "min": [
        -0.93323701620101929,
        0.35262000560760498,
        -0.090341396629810333
      ],
      "type": "VEC3"
    },
    {
      "bufferView": 2,
      "byteOffset": 21576,
      "componentType": 5126,
      "count": 220,
      "max": [
        0.99877661466598511,
        0.99253374338150024,
        0.98650765419006348
      ],
      "min": [
        -0.99877661466598511,
        -0.99253374338150024,
        -0.98650765419006348
      ],
      "type": "VEC3"
    },
    {
      "bufferView": 3,
      "byteOffset": 12624,
      "componentType": 5126,
      "count": 220,
      "max": [
        0.99662303924560547,
        0.99940931797027588,
        0.99994593858718872,
        1
      ],
      "min": [
        -0.99474740028381348,
        -0.9988747239112854,
        -0.98048937320709229,
        -1
      ],
      "type": "VEC4"
    },
    {
      "bufferView": 1,
      "byteOffset": 6312,
      "componentType": 5126,
      "count": 220,
      "max": [
        0.9921879768371582,
        0.94713300466537476
      ],
      "min": [
        0.0078125,
        0.0078125
      ],
      "type": "VEC2"
    },
    {
      "bufferView": 0,
      "byteOffset": 5760,
      "componentType": 5125,
      "count": 768,
      "max": [
        219
      ],
      "min": [
        0
      ],
      "type": "SCALAR"
    },
    {
      "bufferView": 2,
      "byteOffset": 24216,
      "componentType": 5126,
      "count": 1908,
      "max": [
        1,
        0.48768499493598938,
        -0.040690600872039795
      ],
      "min": [
        -1,
        -0.080163396894931793,
        -0.76649600267410278
      ],
      "type": "VEC3"
    },
    {
      "bufferView": 2,
      "byteOffset": 47112,
      "componentType": 5126,
      "count": 1908,
      "max": [
        0.99991601705551147,
        0.99466574192047119,
        0.93238657712936401
      ],
      "min": [
        -0.99991601705551147,
        -0.99922490119934082,
        -0.91640132665634155
      ],
      "type": "VEC3"
    },
    {
      "bufferView": 3,
      "byteOffset": 16144,
      "componentType": 5126,
      "count": 1908,
      "max": [
        0.99609994888305664,
        1,
        0.99997645616531372,
        1
      ],
      "min": [
        -0.99378961324691772,
        -0.99999862909317017,
        -0.99999958276748657,
        -1
      ],
      "type": "VEC4"
    },
    {
      "bufferView": 1,
      "byteOffset": 8072,
      "componentType": 5126,
      "count": 1908,
      "max": [
        0.9921879768371582,
        0.98560398817062378
      ],
      "min": [
        0.0078125,
        0.0078125
      ],
      "type": "VEC2"
    },
    {
      "bufferView": 0,
      "byteOffset": 8832,
      "componentType": 5125,
      "count": 8832,
      "max": [
        1907
      ],
      "min": [
        0
      ],
      "type": "SCALAR"
    },
    {
      "bufferView": 2,
      "byteOffset": 70008,
      "componentType": 5126,
      "count": 1800,
      "max": [
        0.93196797370910645,
        0.71870601177215576,
        0.76649600267410278
      ],
      "min": [
        -0.93196797370910645,
        -0.71870601177215576,
        -0.15583799779415131
      ],
      "type": "VEC3"
    },
    {
      "bufferView": 2,
      "byteOffset": 91608,
      "componentType": 5126,
      "count": 1800,
      "max": [
        0.999991774559021,
        0.99910950660705566,
        0.9999997615814209
      ],
      "min": [
        -0.999991774559021,
        -0.99383050203323364,
        -0.9999576210975647
      ],
      "type": "VEC3"
    },
    {
      "bufferView": 3,
      "byteOffset": 46672,
      "componentType": 5126,
      "count": 1800,
      "max": [
        1,
        0.99999862909317017,
        0.99895089864730835,
        1
      ],
      "min": [
        -1,
        -0.99999439716339111,
        -0.99995046854019165,
        -1
      ],
      "type": "VEC4"
    },
    {
      "bufferView": 1,
      "byteOffset": 23336,
      "componentType": 5126,
      "count": 1800,
      "max": [
        0.9921879768371582,
        0.9003940224647522
      ],
      "min": [
        0.0078125,
        0.0078125
      ],
      "type": "VEC2"
    },
    {
      "bufferView": 0,
      "byteOffset": 44160,
      "componentType": 5125,
      "count": 9888,
      "max": [
        1799
      ],
      "min": [
        0
      ],
      "type": "SCALAR"
    }
  ],
  "asset": {
    "extras": {
      "author": "Maxim Lukyanov (https://sketchfab.com/Mad_Huron)",
      "license": "CC-BY-4.0 (http://creativecommons.org/licenses/by/4.0/)",
      "source": "https://sketchfab.com/3d-models/oronavirus-medical-mask-25c5142bb812468d8cad7571f1eaacaf",
      "title": "Сoronavirus medical mask"
    },
    "generator": "Sketchfab-7.98.1",
    "version": "2.0"
  },
  "bufferViews": [
    {
      "buffer": 0,
      "byteLength": 83712,
      "byteOffset": 0,
      "name": "floatBufferViews",
      "target": 34963
    },
    {
      "buffer": 0,
      "byteLength": 37736,
      "byteOffset": 83712,
      "byteStride": 8,
      "name": "floatBufferViews",
      "target": 34962
    },
    {
      "buffer": 0,
      "byteLength": 113208,
      "byteOffset": 121448,
      "byteStride": 12,
      "name": "floatBufferViews",
      "target": 34962
    },
    {
      "buffer": 0,
      "byteLength": 75472,
      "byteOffset": 234656,
      "byteStride": 16,
      "name": "floatBufferViews",
      "target": 34962
    }
  ],
  "buffers": [
    {
      "byteLength": 310128,
      "uri": "scene.bin"
    }
  ],
  "images": [
    {
      "uri": "textures/mask_baseColor.png"
    },
    {
      "uri": "textures/mask_metallicRoughness.png"
    },
    {
      "uri": "textures/mask_normal.png"
    },
    {
      "uri": "textures/leam_baseColor.png"
    },
    {
      "uri": "textures/leam_metallicRoughness.png"
    },
    {
      "uri": "textures/leam_normal.png"
    },
    {
      "uri": "textures/knop_baseColor.png"
    },
    {
      "uri": "textures/knop_metallicRoughness.png"
    },
    {
      "uri": "textures/knop_normal.png"
    },
    {
      "uri": "textures/filter_baseColor.png"
    },
    {
      "uri": "textures/filter_metallicRoughness.png"
    },
    {
      "uri": "textures/filter_normal.png"
    }
  ],
  "materials": [
    {
      "alphaMode": "BLEND",
      "doubleSided": true,
      "name": "mask",
      "normalTexture": {
        "index": 2,
        "scale": 1,
        "texCoord": 0
      },
      "occlusionTexture": {
        "index": 1,
        "strength": 1,
        "texCoord": 0
      },
      "pbrMetallicRoughness": {
        "baseColorFactor": [
          1,
          1,
          1,
          1
        ],
        "baseColorTexture": {
          "index": 0,
          "texCoord": 0
        },
        "metallicFactor": 1,
        "metallicRoughnessTexture": {
          "index": 1,
          "texCoord": 0
        },
        "roughnessFactor": 1
      }
    },
    {
      "alphaMode": "BLEND",
      "doubleSided": true,
      "name": "leam",
      "normalTexture": {
        "index": 5,
        "scale": 1,
        "texCoord": 0
      },
      "occlusionTexture": {
        "index": 4,
        "strength": 1,
        "texCoord": 0
      },
      "pbrMetallicRoughness": {
        "baseColorFactor": [
          1,
          1,
          1,
          1
        ],
        "baseColorTexture": {
          "index": 3,
          "texCoord": 0
        },
        "metallicFactor": 1,
        "metallicRoughnessTexture": {
          "index": 4,
          "texCoord": 0
        },
        "roughnessFactor": 1
      }
    },
    {
      "alphaMode": "BLEND",
      "doubleSided": true,
      "name": "knop",
      "normalTexture": {
        "index": 8,
        "scale": 1,
        "texCoord": 0
      },
      "occlusionTexture": {
        "index": 7,
        "strength": 1,
        "texCoord": 0
      },
      "pbrMetallicRoughness": {
        "baseColorFactor": [
          1,
          1,
          1,
          1
        ],
        "baseColorTexture": {
          "index": 6,
          "texCoord": 0
        },
        "metallicFactor": 1,
        "metallicRoughnessTexture": {
          "index": 7,
          "texCoord": 0
        },
        "roughnessFactor": 1
      }
    },
    {
      "alphaMode": "BLEND",
      "doubleSided": true,
      "name": "filter",
      "normalTexture": {
        "index": 11,
        "scale": 1,
        "texCoord": 0
      },
      "occlusionTexture": {
        "index": 10,
        "strength": 1,
        "texCoord": 0
      },
      "pbrMetallicRoughness": {
        "baseColorFactor": [
          1,
          1,
          1,
          1
        ],
        "baseColorTexture": {
          "index": 9,
          "texCoord": 0
        },
        "metallicFactor": 1,
        "metallicRoughnessTexture": {
          "index": 10,
          "texCoord": 0
        },
        "roughnessFactor": 1
      }
    }
  ],
  "meshes": [
    {
      "name": "defaultMaterial",
      "primitives": [
        {
          "attributes": {
            "NORMAL": 1,
            "POSITION": 0,
            "TANGENT": 2,
            "TEXCOORD_0": 3
          },
          "indices": 4,
          "material": 3,
          "mode": 4
        }
      ]
    },
    {
      "name": "defaultMaterial",
      "primitives": [
        {
          "attributes": {
            "NORMAL": 6,
            "POSITION": 5,
            "TANGENT": 7,
            "TEXCOORD_0": 8
          },
          "indices": 9,
          "material": 2,
          "mode": 4
        }
      ]
    },
    {
      "name": "defaultMaterial",
      "primitives": [
        {
          "attributes": {
            "NORMAL": 11,
            "POSITION": 10,
            "TANGENT": 12,
            "TEXCOORD_0": 13
          },
          "indices": 14,
          "material": 2,
          "mode": 4
        }
      ]
    },
    {
      "name": "defaultMaterial",
      "primitives": [
        {
          "attributes": {
            "NORMAL": 16,
            "POSITION": 15,
            "TANGENT": 17,
            "TEXCOORD_0": 18
          },
          "indices": 19,
          "material": 1,
          "mode": 4
        }
      ]
    },
    {
      "name": "defaultMaterial",
      "primitives": [
        {
          "attributes": {
            "NORMAL": 21,
            "POSITION": 20,
            "TANGENT": 22,
            "TEXCOORD_0": 23
          },
          "indices": 24,
          "material": 0,
          "mode": 4
        }
      ]
    }
  ],
  "nodes": [
    {
      "children": [
        1
      ],
      "name": "RootNode (gltf orientation matrix)",
      "rotation": [
        -0.70710678118654746,
        -0,
        -0,
        0.70710678118654757
      ]
    },
    {
      "children": [
        2
      ],
      "name": "RootNode (model correction matrix)"
    },
    {
      "children": [
        3,
        5,
        7,
        9,
        11
      ],
      "matrix": [
        1,
        0,
        0,
        0,
        0,
        -4.3711390063094768e-08,
        0.999999999999999,
        0,
        0,
        -0.999999999999999,
        -4.3711390063094768e-08,
        0,
        0,
        0,
        0,
        1
      ],
      "name": "Collada visual scene group"
    },
    {
      "children": [
        4
      ],
      "name": "Filter"
    },
    {
      "mesh": 0,
      "name": "defaultMaterial"
    },
    {
      "children": [
        6
      ],
      "name": "Knop2"
    },
    {
      "mesh": 1,
      "name": "defaultMaterial"
    },
    {
      "children": [
        8
      ],
      "name": "Knop"
    },
    {
      "mesh": 2,
      "name": "defaultMaterial"
    },
    {
      "children": [
        10
      ],
      "name": "Leam"
    },
    {
      "mesh": 3,
      "name": "defaultMaterial"
    },
    {
      "children": [
        12
      ],
      "name": "Mask"
    },
    {
      "mesh": 4,
      "name": "defaultMaterial"
    }
  ],
  "samplers": [
    {
      "magFilter": 9729,
      "minFilter": 9987,
      "wrapS": 10497,
      "wrapT": 10497
    }
  ],
  "scene": 0,
  "scenes": [
    {
      "name": "OSG_Scene",
      "nodes": [
        0
      ]
    }
  ],
  "textures": [
    {
      "sampler": 0,
      "source": 0
    },
    {
      "sampler": 0,
      "source": 1
    },
    {
      "sampler": 0,
      "source": 2
    },
    {
      "sampler": 0,
      "source": 3
    },
    {
      "sampler": 0,
      "source": 4
    },
    {
      "sampler": 0,
      "source": 5
    },
    {
      "sampler": 0,
      "source": 6
    },
    {
      "sampler": 0,
      "source": 7
    },
    {
      "sampler": 0,
      "source": 8
    },
    {
      "sampler": 0,
      "source": 9
    },
    {
      "sampler": 0,
      "source": 10
    },
    {
      "sampler": 0,
      "source": 11
    }
  ]
}

